# xmcd
#
# Track frame offsets:
#	150
#	10362
#	20347
#	31864
#	35616
#	45818
#	58675
#	73168
#	85586
#	96695
#	107957
#	117417
#	129821
#	142161
#	152010
#	164589
#	174591
#	189217
#	203412
#	214118
#
# Disc length: 2996 seconds
#
# Revision: 1
# Processed by: cddbd v1.5.2PL0 Copyright (c) Steve Scherf et al.
# Submitted via: audiograbber 1.83.01
#
DISCID=100bb214
DTITLE=Wanda Jackson - The Famous Wanda Jackson CD18
DYEAR=2012
DGENRE=Country
TTITLE0=Yakety Yak
TTITLE1=You Bug Me Bad
TTITLE2=You Can´t Have My Love (With Billy Gray)
TTITLE3=You Can't Make A Heel To The Mark
TTITLE4=You Created Me
TTITLE5=You Don´t Know Baby
TTITLE6=You Took Him Off My Hands
TTITLE7=You Win Again
TTITLE8=You Won´t Forget (About Me)
TTITLE9=You´d Be The First One To Know
TTITLE10=You´re The One For Me
TTITLE11=You´ve Turned To A Stranger
TTITLE12=You'll Always Have My Love
TTITLE13=Your Good Girls Gonna Go bad
TTITLE14=Your Memory Comes And Gets Me
TTITLE15=Your Tender Love
TTITLE16=Youre Right I'm Left, He's Gone
TTITLE17=You're The Only World I Know
TTITLE18=You're The Reason I'm Living
TTITLE19=Yours Love
EXTD=
EXTT0=
EXTT1=
EXTT2=
EXTT3=
EXTT4=
EXTT5=
EXTT6=
EXTT7=
EXTT8=
EXTT9=
EXTT10=
EXTT11=
EXTT12=
EXTT13=
EXTT14=
EXTT15=
EXTT16=
EXTT17=
EXTT18=
EXTT19=
PLAYORDER=
